<svg width="1820" height="698" viewBox="0 0 1820 698" fill="none" xmlns="http://www.w3.org/2000/svg">
<path d="M44.4687 30.0956C28.4158 32.3528 3.98431 17.1168 -6.22481 9.2167L-8.86562 587.054C-8.86605 598.904 -24.918 698.219 -8.8651 695.962C11.2011 693.141 25.4587 668.312 47.6371 668.876C69.8155 669.44 81.9608 695.962 107.308 695.962C132.654 695.962 137.407 668.876 160.113 668.876C182.82 668.876 194.437 695.962 218.728 695.962C243.018 695.962 253.051 668.876 271.533 668.876C290.016 668.876 309.026 695.962 331.204 695.962C353.382 695.962 366.584 668.876 386.65 668.876C406.716 668.876 426.782 695.962 445.792 695.962C464.803 695.962 479.06 668.876 501.239 668.876C523.417 668.876 535.034 695.962 557.741 695.962C580.447 695.962 593.121 668.876 616.883 668.876C640.646 668.876 657.016 695.962 673.385 695.962C689.755 695.962 711.406 668.876 730.416 668.876C749.426 668.876 765.795 695.962 785.334 695.962C804.872 695.962 821.77 668.876 840.78 668.876C859.79 668.876 878.8 697.655 901.506 695.398C924.213 693.141 937.942 668.876 958.008 668.876C978.075 668.876 996.029 695.398 1014.51 695.398C1032.99 695.398 1055.7 668.876 1072.6 668.876C1089.49 668.876 1113.26 695.398 1129.1 695.398C1144.94 695.398 1161.31 668.876 1184.02 668.876C1206.72 668.876 1217.28 695.398 1241.05 695.398C1264.81 695.398 1282.76 668.876 1296.49 668.876C1310.22 668.876 1338.21 695.398 1358.8 695.398C1379.4 695.398 1399.99 668.876 1416.89 668.876C1433.79 668.876 1461.78 695.398 1480.26 695.398C1498.74 695.398 1510.88 668.876 1534.12 668.876C1557.35 668.876 1576.36 695.398 1595.9 695.398C1615.44 695.398 1633.92 668.876 1653.99 668.876C1674.05 668.876 1690.95 693.141 1709.43 693.141C1730.56 693.141 1741.65 666.055 1769.1 668.876C1797.83 668.876 1817.16 684.112 1826.14 693.141L1833 3.00937C1817.51 11.85 1782.83 29.5312 1768.05 29.5312C1749.57 29.5312 1727.39 3.00937 1707.32 3.00937C1687.26 3.00937 1668.77 29.5312 1649.24 29.5312C1629.7 29.5312 1610.69 3.00937 1587.45 3.00937C1564.22 3.00937 1552.07 29.5312 1533.59 29.5312C1515.11 29.5312 1487.12 3.00937 1470.22 3.00937C1453.33 3.00937 1432.73 29.5312 1412.14 29.5312C1391.54 29.5312 1363.56 3.00937 1349.83 3.00937C1336.1 3.00937 1318.14 29.5312 1294.38 29.5312C1270.62 29.5312 1260.06 3.00937 1237.35 3.00937C1214.64 3.00937 1198.27 29.5312 1182.43 29.5312C1166.59 29.5312 1142.83 3.00937 1125.93 3.00937C1109.03 3.00937 1086.33 29.5312 1067.84 29.5312C1049.36 29.5312 1031.41 3.00937 1011.34 3.00937C991.276 3.00937 977.547 27.274 954.84 29.5312C932.134 31.7884 913.124 3.00947 894.113 3.00947C875.103 3.00947 858.206 30.0956 838.667 30.0956C819.129 30.0956 802.759 3.00947 783.749 3.00947C764.739 3.00947 743.089 30.0956 726.719 30.0956C710.349 30.0956 693.98 3.00947 670.217 3.00947C646.454 3.00947 633.781 30.0956 611.075 30.0956C588.368 30.0956 576.751 3.00947 554.572 3.00947C532.394 3.00947 518.136 30.0956 499.126 30.0956C480.116 30.0956 460.05 3.00947 439.984 3.00947C419.918 3.00947 406.716 30.0956 384.538 30.0956C362.359 30.0956 343.349 3.00947 324.867 3.00947C306.385 3.00947 296.352 30.0956 272.062 30.0956C247.771 30.0956 236.154 3.00947 213.447 3.00947C190.741 3.00947 185.988 30.0956 160.641 30.0956C135.295 30.0956 123.149 3.57376 100.971 3.00947C78.7925 2.44518 64.5349 27.2741 44.4687 30.0956Z" fill="#41EAF0" stroke="black" stroke-width="3"/>
</svg>
