<svg width="84" height="78" viewBox="0 0 84 78" fill="none" xmlns="http://www.w3.org/2000/svg">
<path d="M43.773 0.189097C50.9677 0.638899 59.646 -0.824865 68.084 1.48514C76.3727 3.75702 82.465 10.4736 83.1778 18.4099C84.2968 30.7071 84.1724 43.05 83.4099 55.3395C82.5396 69.3748 75.6682 76.038 60.4666 76.7851C47.246 77.4332 33.926 77.6695 20.6971 76.5412C9.04309 75.5501 1.79043 68.4066 0.795777 57.6342C-0.314917 45.5887 -0.149142 33.4974 0.596846 21.4594C1.46717 7.4698 9.84711 0.494048 25.1647 0.196721C30.9089 0.0823641 36.6613 0.181473 43.7647 0.181473L43.773 0.189097ZM38.7169 29.8075C38.7169 32.0641 38.9075 34.3436 38.6671 36.5774C38.3853 39.1771 39.6203 40.8772 41.8417 42.1275C45.8701 44.3841 49.8984 46.656 54.0096 48.7754C55.7503 49.675 57.8473 49.9037 59.0741 48.0893C60.2428 46.351 59.5797 44.7958 57.5904 43.7208C54.4407 42.0284 51.4153 40.13 48.1992 38.5672C46.0358 37.5151 45.0992 36.2572 45.2235 33.9243C45.4473 29.9218 45.323 25.8965 45.2567 21.8864C45.2235 19.8356 43.9388 18.4023 41.7506 18.5014C39.8027 18.5929 38.7417 20.0262 38.7252 21.9092C38.7086 24.5471 38.7252 27.1773 38.7169 29.8151V29.8075Z" fill="black"/>
</svg>
