<svg width="78" height="80" viewBox="0 0 78 80" fill="none" xmlns="http://www.w3.org/2000/svg">
<path d="M30.8626 20.2506C36.8718 20.2506 42.8728 20.1736 48.882 20.2737C53.9062 20.3584 57.8048 22.5215 60.2713 26.5551C61.3639 28.3564 62.6386 28.9107 64.8072 28.9415C73.7962 29.0723 77.6285 32.8135 77.6451 41.1734C77.6451 42.4435 77.6699 43.7137 77.6451 44.9838C77.4961 51.8503 73.3575 55.8455 65.9826 55.9225C63.4001 55.9456 62.3241 56.4074 61.8192 59.1171C59.7996 69.8248 50.7361 77.5689 38.9328 78.6928C30.2584 79.5241 21.5343 79.9706 13.4558 75.7291C5.01308 71.3028 0.576529 64.5364 0.204058 55.6684C-0.118751 48.063 -0.00287201 40.4267 0.170948 32.8135C0.336491 25.4312 6.00634 20.3276 14.0766 20.1428C19.6719 20.0119 25.2756 20.1197 30.8709 20.1197V20.2506H30.8626ZM62.4648 42.4358C62.4648 43.5751 62.3324 44.7298 62.4979 45.8537C62.7214 47.3778 61.4302 49.6487 64.6582 49.8566C67.6877 50.049 70.3778 49.4178 70.8992 46.3309C71.3296 43.7445 71.2469 40.9886 70.8082 38.3867C70.2701 35.1844 67.4559 34.8303 64.5093 34.992C61.0991 35.1767 62.8373 37.5785 62.5145 39.0257C62.2744 40.1188 62.4648 41.2965 62.4648 42.4358ZM13.6627 43.1286C13.6627 45.1455 13.6296 47.1623 13.671 49.1792C13.7124 50.9728 14.9457 52.0658 16.659 52.2198C18.4635 52.3738 19.9533 51.2499 20.0361 49.5794C20.2265 45.4303 20.2017 41.2657 20.0278 37.1243C19.9533 35.3923 18.4055 34.407 16.6508 34.4916C14.8877 34.5763 13.6793 35.6309 13.6627 37.4707C13.6544 39.3644 13.6627 41.2504 13.6627 43.144V43.1286Z" fill="black"/>
<path d="M42.2601 8.64967C41.9952 6.53276 43.1375 4.62369 44.0231 2.64534C44.7846 0.951811 46.2828 0.389867 47.9961 0.959509C49.7012 1.52145 50.5124 2.7916 49.9578 4.5929C49.5191 6.0401 48.6749 7.37183 48.7659 8.97299C48.8818 11.0283 48.501 12.922 45.6703 12.9374C42.6905 12.9528 42.2021 11.0129 42.2601 8.64198V8.64967Z" fill="black"/>
<path d="M27.1958 9.05001C27.353 6.32497 27.8 4.25425 29.1823 2.43755C30.2087 1.09042 31.4006 0.243659 33.2795 1.03654C35.1336 1.82172 35.3157 3.25352 34.9515 4.83928C34.6204 6.29418 33.7099 7.58742 33.7182 9.17318C33.7182 11.2285 33.0394 13.0991 30.3245 12.922C27.4027 12.7296 27.2868 10.5511 27.2041 9.04232L27.1958 9.05001Z" fill="black"/>
<path d="M12.1563 7.90322C12.2473 6.35595 12.7108 4.09278 14.151 2.19911C15.136 0.905867 16.7335 0.0898927 18.4138 1.05982C19.8871 1.90659 20.6486 3.3076 19.8954 4.97804C19.316 6.26358 18.4717 7.47214 18.5959 8.92704C18.7945 11.3211 18.0165 13.107 15.1112 12.8991C12.4377 12.7144 12.1149 10.7052 12.1563 7.90322Z" fill="black"/>
</svg>
