<svg width="74" height="109" viewBox="0 0 74 109" fill="none" xmlns="http://www.w3.org/2000/svg">
<path d="M72.4291 35.9723C72.4291 36.4231 72.4414 36.9661 72.4555 37.5923C72.6197 44.8734 73.0377 63.4062 57.4085 79.0975C50.2915 86.2427 40.2358 94.281 31.4247 99.8821C27.0114 102.688 22.9795 104.837 19.8261 105.971C18.2422 106.54 16.9706 106.82 16.03 106.842C15.6234 106.852 15.3244 106.814 15.1041 106.754C15.3253 106.355 15.6677 105.827 16.1366 105.169C17.2828 103.559 19 101.422 20.9847 98.9621C21.0871 98.8352 21.1901 98.7075 21.2938 98.579C25.1647 93.783 29.9183 87.8932 32.8802 82.8669C35.0961 79.1066 35.7097 75.8444 35.3739 73.3925C35.2069 72.1739 34.7977 71.115 34.1865 70.3228C33.5877 69.5466 32.6869 68.9097 31.5879 68.9097C15.0427 68.9097 1.5 54.9851 1.5 35.9723C1.5 17.1111 17.3299 1.73535 36.9646 1.73535C56.5993 1.73535 72.4291 17.1111 72.4291 35.9723Z" fill="#FFEC3A" stroke="black" stroke-width="3"/>
</svg>
