<svg width="81" height="73" viewBox="0 0 81 73" fill="none" xmlns="http://www.w3.org/2000/svg">
<path d="M40.8707 72.3388C19.1928 72.0078 2.98614 58.7982 0.29607 40.3157C-2.31951 22.3797 12.7201 4.38975 32.8336 1.41837C45.6797 -0.482999 57.0773 2.45758 67.0679 10.217C69.6503 12.2185 70.8671 13.9736 66.7368 15.544C66.4967 15.6363 66.3312 15.875 66.1243 16.052C61.0752 20.4398 56.5476 21.733 49.6776 17.6532C40.9783 12.4956 28.6039 15.6748 21.9905 22.9416C15.0542 30.5625 14.3176 40.4234 20.5254 48.4754C25.8725 55.4112 33.5537 58.4903 42.5758 57.5974C51.5565 56.7121 58.2858 52.3397 62.0436 44.4494C62.9707 42.5096 63.2521 40.6005 60.7607 39.6691C58.4431 38.7992 56.7959 39.9924 55.9682 42.0246C51.2171 53.6099 35.1346 54.4566 27.5527 47.0359C22.4788 42.0631 21.4607 35.3198 25.2682 28.892C28.5625 23.3342 36.5169 20.1088 43.4945 21.5021C43.627 21.5252 43.7511 21.5945 43.8835 21.6253C46.5074 22.2488 49.959 22.7415 50.5218 25.1971C50.9936 27.237 47.4262 27.9144 45.6962 29.2384C43.4035 30.9936 40.8789 32.4869 38.4537 34.0804C36.9307 35.0811 36.2024 36.1588 37.4025 37.8985C38.8179 39.9462 40.6141 39.6921 42.3274 38.6375C46.3833 36.128 50.3232 33.4569 54.321 30.855C59.9826 27.1677 65.6773 23.542 71.2809 19.7778C73.4827 18.2998 74.5752 18.6154 75.883 20.894C87.678 41.4935 73.135 67.7509 47.6828 71.5921C45.001 72.0001 42.2778 72.1925 40.8707 72.3465V72.3388Z" fill="#060606"/>
</svg>
