<svg width="159" height="93" viewBox="0 0 159 93" fill="none" xmlns="http://www.w3.org/2000/svg">
<path d="M28.9518 80.9324C29.0781 75.7605 31.3666 68.6323 33.7825 68.6323C36.1983 68.6323 35.6911 76.1581 34.9901 80.9324C34.3942 84.9914 33.7827 90.7725 31.3671 90.7725C28.9516 90.7725 28.8551 84.8923 28.9518 80.9324Z" fill="white"/>
<path d="M49.1866 79.5984C47.6819 75.0239 43.7309 69.2865 41.586 69.9346C39.4412 70.5827 41.9178 77.1523 43.8257 81.2183C45.4477 84.6751 47.5471 89.6622 49.6917 89.0142C51.8363 88.3661 50.3387 83.1008 49.1866 79.5984Z" fill="white"/>
<path d="M68.3098 83.4096C62.0611 79.4007 54.5337 72.1208 55.7733 70.1162C57.0129 68.1116 65.9397 74.2134 71.4082 78.3992C76.0573 81.9577 82.8008 86.8291 81.5613 88.8335C80.3219 90.8379 73.0941 86.4791 68.3098 83.4096Z" fill="white"/>
<path d="M14.5373 65.326C5.68163 74.1819 -2.54439 92.9998 1.88327 93C6.31092 93.0002 6.78823 87.4662 21.1793 70.861C35.5704 54.2559 55.5189 58.0212 65.4599 58.6839C82.065 59.7909 94.2422 58.6839 108.633 53.1489C127.975 45.7096 146.768 22.5154 150.699 16.6176C155.127 9.97564 160.659 0.859623 156.864 0.0109848C154.02 -0.625126 136.938 26.5792 125.868 35.4353C114.798 44.2914 101.514 50.9336 87.1228 52.0406C72.7317 53.1476 51.6985 47.6126 42.8425 48.7196C33.9864 49.8266 23.3929 56.4701 14.5373 65.326Z" fill="white"/>
</svg>
