<svg width="82" height="81" viewBox="0 0 82 81" fill="none" xmlns="http://www.w3.org/2000/svg">
<path d="M51.1308 59.3057C51.1308 57.1426 51.2053 54.9795 51.1143 52.8241C50.9901 49.845 51.3957 47.2816 53.8458 44.8568C56.7096 42.024 56.3123 38.0365 53.316 35.296C51.5778 33.7026 51.0564 32.0321 51.0977 29.869C51.2053 24.0264 51.0729 18.176 51.1557 12.3333C51.2136 8.36891 52.8442 7.34509 56.8255 8.51517C71.5837 12.8568 82.0295 26.251 81.8887 40.6768C81.748 55.1257 71.4678 67.9812 56.6517 72.2227C52.4966 73.4081 51.1971 72.5383 51.1391 68.443C51.0977 65.3947 51.1308 62.3463 51.1308 59.298V59.3057Z" fill="black"/>
<path d="M45.8004 40.5537C45.8004 48.9444 45.8335 57.3273 45.7921 65.718C45.7508 74.6321 39.8574 80.0437 30.1732 80.0899C24.5695 80.1207 18.9659 80.0207 13.3705 80.1284C10.7715 80.1746 8.90088 79.3971 8.97537 76.8491C9.04159 74.3781 11.235 74.0009 13.4202 74.0009C18.8831 73.9932 24.3543 74.0471 29.8172 73.9855C36.439 73.9162 39.2201 71.299 39.2284 65.0945C39.2615 48.5749 39.2615 32.0553 39.2284 15.5356C39.2201 9.68527 36.2817 6.94483 30.0076 6.88324C24.404 6.82936 18.8004 6.79857 13.205 6.90634C10.755 6.95252 9.05814 6.15195 8.9671 3.85029C8.87605 1.34848 10.9619 0.794234 13.1802 0.786536C19.4625 0.755744 25.7614 0.617183 32.0355 0.825025C39.874 1.08675 45.7342 6.89864 45.7921 14.2655C45.8584 23.0334 45.8087 31.8012 45.8087 40.5691L45.8004 40.5537Z" fill="black"/>
<path d="M23.7914 31.4702C23.7914 37.8518 23.9072 44.0408 23.7582 50.2222C23.6175 55.9571 19.2969 60.2064 13.2049 60.9454C7.65091 61.6151 2.09694 58.1279 0.491171 52.9473C-1.18081 47.5819 1.51754 42.2164 7.0384 39.7377C9.50499 38.6292 12.1206 38.4599 14.5872 39.2143C17.0786 39.9764 17.3021 39.1065 17.2607 37.1897C17.1614 32.8712 17.211 28.5527 17.2441 24.2342C17.2607 22.4098 17.4759 20.5239 19.7438 19.9311C22.078 19.323 23.1623 20.8857 24.1142 22.5253C25.3309 24.6037 27.0939 26.1741 29.544 26.8977C31.7374 27.5443 33.4508 28.5527 32.5817 30.9391C31.7291 33.2715 29.6516 33.2407 27.4912 32.5941C26.3407 32.2477 25.1985 31.909 23.7914 31.4856V31.4702Z" fill="black"/>
</svg>
