<svg width="279" height="248" viewBox="0 0 279 248" fill="none" xmlns="http://www.w3.org/2000/svg">
<path d="M119.486 56.5504C121.868 49.2151 131.313 47.304 136.468 53.0403C154.594 73.21 190.549 112.398 218.633 137.852C231.171 149.217 248.224 163.357 261.008 173.762C267.8 179.29 264.842 190.478 256.22 192.012C234.49 195.878 202.431 202.316 184.075 209.435C162.599 217.765 114.211 234.07 89.2234 242.408C82.1112 244.781 75.0844 238.756 76.3533 231.367C80.0851 209.635 87.1173 170.587 93.9792 142.789C100.79 115.199 112.595 77.7751 119.486 56.5504Z" fill="#8BFCB4"/>
<mask id="mask0_127_214" style="mask-type:alpha" maskUnits="userSpaceOnUse" x="52" y="33" width="201" height="204">
<path d="M101.065 35.0999C101.793 32.9035 104.598 32.3403 106.132 34.0716C118.679 48.2257 163.09 97.7722 196.417 127.978C213.9 143.823 240.158 165.065 251.383 174.054C253.434 175.696 252.559 179.01 249.965 179.428C232.46 182.252 185.65 190.334 161.86 199.561C136.508 209.394 73.653 230.342 56.0618 236.175C53.9268 236.883 51.8471 235.09 52.2154 232.871C54.8209 217.171 63.4183 166.723 71.7638 132.915C80.1078 99.1121 95.9493 50.549 101.065 35.0999Z" fill="#000003"/>
</mask>
<g mask="url(#mask0_127_214)">
<path d="M97.2709 46.6764C99.6525 39.3411 109.098 37.43 114.252 43.1663C132.378 63.336 168.333 102.524 196.417 127.978C208.956 139.343 226.009 153.483 238.792 163.888C245.584 169.416 242.626 180.604 234.004 182.138C212.275 186.004 180.216 192.442 161.86 199.561C140.384 207.891 91.9952 224.196 67.008 232.534C59.8958 234.907 52.869 228.882 54.1379 221.493C57.8696 199.761 64.9019 160.713 71.7638 132.915C78.5743 105.325 90.3796 67.9011 97.2709 46.6764Z" fill="#000003"/>
<path d="M80.782 98.2261C80.782 98.2261 96.6537 85.5723 107.395 78.2645C117.898 71.1196 132.079 62.2205 132.079 62.2205" stroke="#FFEC3A" stroke-width="3" stroke-linecap="round"/>
<path d="M68.2781 145.257C68.2781 145.257 90.2178 122.08 104.927 107.885C119.172 94.1399 142.33 73.6743 142.33 73.6743" stroke="#FFEC3A" stroke-width="3" stroke-linecap="round"/>
<path d="M66.6688 151.083C66.6688 151.083 91.852 126.585 108.631 111.59C123.434 98.3606 147.297 78.5851 147.297 78.5851" stroke="#FFEC3A" stroke-width="3" stroke-linecap="round"/>
<path d="M53.4344 216.874C53.4344 216.874 96.3848 168.983 119.738 144.911C141.116 122.874 166.637 98.0113 166.637 98.0113" stroke="#FFEC3A" stroke-width="3" stroke-linecap="round"/>
<path d="M53.5594 219.229C53.5594 219.229 93.2209 178.356 119.738 154.785C141.953 135.037 177.745 109.119 177.745 109.119" stroke="#FFEC3A" stroke-width="3" stroke-linecap="round"/>
<path d="M123.44 216.494C123.44 216.494 146.278 186.193 161.702 169.595C176.089 154.115 201.53 132.959 201.53 132.959" stroke="#FFEC3A" stroke-width="3" stroke-linecap="round"/>
</g>
</svg>
