<svg width="63" height="64" viewBox="0 0 63 64" fill="none" xmlns="http://www.w3.org/2000/svg">
<path d="M22.422 5.27296C20.2849 3.13546 14.9436 -2.2052 10.6696 0.999362C6.39561 4.20392 9.60098 9.54614 11.738 12.7518C13.875 15.9574 25.6273 25.5733 28.8327 23.437C32.0381 21.3006 24.5591 7.41045 22.422 5.27296Z" fill="black"/>
<path d="M43.4037 14.2433C41.002 16.0784 35.0008 20.6651 37.6108 25.326C40.2209 29.9868 45.9407 27.5175 49.4012 25.8239C52.8617 24.1304 63.9498 13.7557 62.2569 10.2955C60.564 6.83535 45.8055 12.4082 43.4037 14.2433Z" fill="black"/>
<path d="M47.9201 40.7358C45.9925 38.4076 41.1745 32.5905 36.6193 35.3809C32.0641 38.1714 34.7554 43.7902 36.583 47.1817C38.4106 50.5733 50.4658 65.8305 55.8978 63.0355C61.3298 60.2406 49.8478 43.0639 47.9201 40.7358Z" fill="black"/>
<path d="M5.52594 44.9553C3.38994 47.0918 -0.883068 52.4338 0.183947 54.5709C1.25096 56.7081 6.5946 54.5707 10.8679 52.4341C15.1413 50.2976 29.0305 35.3399 27.9623 34.2713C26.8942 33.2028 7.66194 42.8189 5.52594 44.9553Z" fill="black"/>
</svg>
